<svg width="16" height="16" viewBox="0 0 16 16" fill="none" xmlns="http://www.w3.org/2000/svg">
<path d="M8.5 1L8.5 3C9.328 3.081 10.081 3.414 10.682 3.904L12.096 2.49L13.51 3.904L12.096 5.318C12.586 5.919 12.919 6.672 13 7.5L15 7.5V9.5L13 9.5C12.919 10.328 12.586 11.081 12.096 11.682L13.51 13.096L12.096 14.51L10.682 13.096C10.081 13.586 9.328 13.919 8.5 14V16H6.5V14C5.672 13.919 4.919 13.586 4.318 13.096L2.904 14.51L1.49 13.096L2.904 11.682C2.414 11.081 2.081 10.328 2 9.5L0 9.5V7.5L2 7.5C2.081 6.672 2.414 5.919 2.904 5.318L1.49 3.904L2.904 2.49L4.318 3.904C4.919 3.414 5.672 3.081 6.5 3V1H8.5ZM7.5 5.5C6.119 5.5 5 6.619 5 8C5 9.381 6.119 10.5 7.5 10.5C8.881 10.5 10 9.381 10 8C10 6.619 8.881 5.5 7.5 5.5Z" fill="#424242"/>
</svg>